<?xml version="1.0" encoding="UTF-8" standalone="no"?>
<!-- Created with Inkscape (http://www.inkscape.org/) -->

<svg
   width="182.10748mm"
   height="206.32019mm"
   viewBox="0 0 182.10748 206.32019"
   version="1.1"
   id="svg1"
   inkscape:version="1.3 (0e150ed, 2023-07-21)"
   sodipodi:docname="outline.svg"
   xmlns:inkscape="http://www.inkscape.org/namespaces/inkscape"
   xmlns:sodipodi="http://sodipodi.sourceforge.net/DTD/sodipodi-0.dtd"
   xmlns="http://www.w3.org/2000/svg"
   xmlns:svg="http://www.w3.org/2000/svg">
  <sodipodi:namedview
     id="namedview1"
     pagecolor="#ffffff"
     bordercolor="#000000"
     borderopacity="0.25"
     inkscape:showpageshadow="2"
     inkscape:pageopacity="0.0"
     inkscape:pagecheckerboard="0"
     inkscape:deskcolor="#d1d1d1"
     inkscape:document-units="mm"
     inkscape:zoom="0.42731699"
     inkscape:cx="449.31515"
     inkscape:cy="-380.27975"
     inkscape:window-width="1392"
     inkscape:window-height="1212"
     inkscape:window-x="605"
     inkscape:window-y="90"
     inkscape:window-maximized="0"
     inkscape:current-layer="layer1" />
  <defs
     id="defs1" />
  <g
     inkscape:label="Layer 1"
     inkscape:groupmode="layer"
     id="layer1"
     transform="translate(0.1285,0.1285)">
    <g
       id="g1"
       transform="translate(-23.812497,-45.243746)">
      <path
         id="rect55"
         style="display:inline;fill:none;fill-rule:evenodd;stroke:#000000;stroke-width:0.396;stroke-linecap:square;stroke-linejoin:round;stroke-dasharray:none"
         d="m 26.656332,48.087581 v 34.942055 1.60352 h 7.148917 v -1.60352 h 17.937407 v 1.60352 h 7.148917 V 83.029636 49.6911 48.087581 H 51.742656 V 49.6911 H 33.805249 v -1.603519 z" />
      <path
         id="rect38"
         style="font-variation-settings:'opsz' 27.5;display:inline;fill:none;fill-rule:evenodd;stroke:#000000;stroke-width:0.395893;stroke-linejoin:round;stroke-dasharray:none;stroke-dashoffset:0;stroke-opacity:1"
         d="m 28.92793,93.61297 v 90.1684 15.06877 41.30447 h 27.540273 v -41.30447 h 3.91944 v 0.15225 1.35834 h 21.147275 v -1.35834 h 2.85846 v 1.51059 h 0.376815 v 39.46226 H 101.08314 V 200.51298 182.78843 H 84.393378 60.387643 56.619975 V 93.61297 Z" />
      <path
         id="rect34"
         style="font-variation-settings:'opsz' 27.5;display:inline;fill:none;fill-rule:evenodd;stroke:#000000;stroke-width:0.395893;stroke-linejoin:round;stroke-dasharray:none;stroke-dashoffset:0;stroke-opacity:1"
         d="m 139.68567,182.85435 v -3.58925 l -3.8347,-1e-5 v 1.79463 h -34.76778 v 30.04713 l -5e-5,28.86839 0.76553,0.54143 c 8.42991,11.86471 26.20091,9.41094 31.97216,-0.56116 l 1.24511,-0.0209 6.78836,-0.0757 0.0248,-12.59426 h -0.0248 v -5.96051 h -8.02062 l -0.0129,-10.1973 h 5.86488 43.59533 v -28.25249 h -43.59532"
         sodipodi:nodetypes="cccccccccccccccccccc" />
    </g>
  </g>
</svg>
